ffmpeg started on 2026-04-01 at 13:15:38
Report written to "D:\Convert\FFMetrics\reports\psnr_report-6.txt"
Log level: 32
Command line:
ffmpeg -hide_banner -nostdin -r 24000/1001 -i "F:\\Convert\\files\\[DC] Make Heroine ga Oosugiru - 07_Telegram_HEVC(301).mkv" -r 24000/1001 -i "F:\\Convert\\files\\[DC] Make Heroine ga Oosugiru - 07_Telegram.mp4" -lavfi "[0:v]settb=AVTB,setpts=PTS-STARTPTS,format=pix_fmts=yuv420p10le,fps=24000/1001,scale=1920:1080:flags=lanczos:param0=3:out_range=limited:out_color_matrix=bt709:out_chroma_loc=left,setsar=1/1,setdar=(1920/1080)*(1/1),colorspace=format=yuv420p10:range=tv:primaries=bt709:trc=bt709:space=bt709:fast=0[main];[1:v]settb=AVTB,setpts=PTS-STARTPTS,format=pix_fmts=yuv420p,fps=24000/1001,scale=1920:1080:flags=lanczos:param0=3:out_range=limited:out_color_matrix=bt709:out_chroma_loc=left,setsar=1/1,setdar=(1920/1080)*(1/1),colorspace=format=yuv420p:range=tv:primaries=bt709:trc=bt709:space=bt709:fast=0[ref];[main][ref]psnr=eof_action=endall:stats_file='D\\:/Convert/FFMetrics/logs/psnr_logfile-6.txt'" -f null -
Input #0, matroska,webm, from 'F:\Convert\files\[DC] Make Heroine ga Oosugiru - 07_Telegram_HEVC(301).mkv':
  Metadata:
    COMPATIBLE_BRANDS: isomiso2avc1mp41
    MAJOR_BRAND     : isom
    MINOR_VERSION   : 512
    ENCODER         : Lavf61.7.100
  Duration: 00:24:06.79, start: -0.021000, bitrate: 865 kb/s
  Stream #0:0: Video: hevc (Main 10), yuv420p10le(tv, bt709, progressive), 1920x1080 [SAR 1:1 DAR 16:9], 23.98 fps, 23.98 tbr, 1k tbn (default)
      Metadata:
        HANDLER_NAME    : VideoHandler
        VENDOR_ID       : [0][0][0][0]
        ENCODER         : Lavc61.19.100 libx265
        BPS             : 668520
        DURATION        : 00:24:06.569708333
        NUMBER_OF_FRAMES: 34683
        NUMBER_OF_BYTES : 120882719
        _STATISTICS_WRITING_APP: mkvpropedit v94.0 ('Initiate') 64-bit
        _STATISTICS_WRITING_DATE_UTC: 2026-03-31 09:21:01
        _STATISTICS_TAGS: BPS DURATION NUMBER_OF_FRAMES NUMBER_OF_BYTES
  Stream #0:1: Audio: aac (LC), 48000 Hz, stereo, fltp (default)
      Metadata:
        HANDLER_NAME    : SoundHandler
        VENDOR_ID       : [0][0][0][0]
        ENCODER         : Lavc61.19.100 aac
        BPS             : 193194
        DURATION        : 00:24:06.784000000
        NUMBER_OF_FRAMES: 67819
        NUMBER_OF_BYTES : 34938755
        _STATISTICS_WRITING_APP: mkvpropedit v94.0 ('Initiate') 64-bit
        _STATISTICS_WRITING_DATE_UTC: 2026-03-31 09:21:01
        _STATISTICS_TAGS: BPS DURATION NUMBER_OF_FRAMES NUMBER_OF_BYTES
Input #1, mov,mp4,m4a,3gp,3g2,mj2, from 'F:\Convert\files\[DC] Make Heroine ga Oosugiru - 07_Telegram.mp4':
  Metadata:
    major_brand     : isom
    minor_version   : 512
    compatible_brands: isomiso2avc1mp41
    encoder         : Lavf60.16.100
  Duration: 00:24:06.74, start: 0.000000, bitrate: 3764 kb/s
  Stream #1:0[0x1](und): Video: h264 (High) (avc1 / 0x31637661), yuv420p(tv, bt709, progressive), 1920x1080 [SAR 1:1 DAR 16:9], 3616 kb/s, 23.98 fps, 23.98 tbr, 24k tbn (default)
      Metadata:
        handler_name    : VideoHandler
        vendor_id       : [0][0][0][0]
        encoder         : Lavc60.31.102 h264_qsv
  Stream #1:1[0x2](und): Audio: aac (HE-AACv2) (mp4a / 0x6134706D), 48000 Hz, stereo, fltp, 144 kb/s (default)
      Metadata:
        handler_name    : SoundHandler
        vendor_id       : [0][0][0][0]
Stream mapping:
  Stream #0:0 (hevc) -> settb:default
  Stream #1:0 (h264) -> settb:default
  psnr:default -> Stream #0:0 (wrapped_avframe)
  Stream #0:1 -> #0:1 (aac (native) -> pcm_s16le (native))
Output #0, null, to 'pipe:':
  Metadata:
    COMPATIBLE_BRANDS: isomiso2avc1mp41
    MAJOR_BRAND     : isom
    MINOR_VERSION   : 512
    encoder         : Lavf61.7.100
  Stream #0:0: Video: wrapped_avframe, yuv420p10le(tv, bt709, progressive), 1920x1080 [SAR 1:1 DAR 16:9], q=2-31, 200 kb/s, 23.98 fps, 23.98 tbn
      Metadata:
        encoder         : Lavc61.19.100 wrapped_avframe
  Stream #0:1: Audio: pcm_s16le, 48000 Hz, stereo, s16, 1536 kb/s (default)
      Metadata:
        HANDLER_NAME    : SoundHandler
        VENDOR_ID       : [0][0][0][0]
        _STATISTICS_TAGS: BPS DURATION NUMBER_OF_FRAMES NUMBER_OF_BYTES
        BPS             : 193194
        DURATION        : 00:24:06.784000000
        NUMBER_OF_FRAMES: 67819
        NUMBER_OF_BYTES : 34938755
        _STATISTICS_WRITING_APP: mkvpropedit v94.0 ('Initiate') 64-bit
        _STATISTICS_WRITING_DATE_UTC: 2026-03-31 09:21:01
        encoder         : Lavc61.19.100 pcm_s16le
frame=  129 fps=0.0 q=-0.0 size=N/A time=00:00:05.38 bitrate=N/A speed=10.6x    frame=  328 fps=321 q=-0.0 size=N/A time=00:00:13.68 bitrate=N/A speed=13.4x    frame=  523 fps=338 q=-0.0 size=N/A time=00:00:21.81 bitrate=N/A speed=14.1x    frame=  720 fps=350 q=-0.0 size=N/A time=00:00:30.03 bitrate=N/A speed=14.6x    frame=  893 fps=347 q=-0.0 size=N/A time=00:00:37.24 bitrate=N/A speed=14.5x    frame= 1038 fps=337 q=-0.0 size=N/A time=00:00:43.29 bitrate=N/A speed=  14x    frame= 1208 fps=335 q=-0.0 size=N/A time=00:00:50.38 bitrate=N/A speed=  14x    frame= 1373 fps=334 q=-0.0 size=N/A time=00:00:57.26 bitrate=N/A speed=13.9x    frame= 1529 fps=329 q=-0.0 size=N/A time=00:01:03.77 bitrate=N/A speed=13.7x    frame= 1674 fps=325 q=-0.0 size=N/A time=00:01:09.81 bitrate=N/A speed=13.6x    frame= 1843 fps=326 q=-0.0 size=N/A time=00:01:16.86 bitrate=N/A speed=13.6x    frame= 2020 fps=326 q=-0.0 size=N/A time=00:01:24.25 bitrate=N/A speed=13.6x    frame= 2124 fps=317 q=-0.0 size=N/A time=00:01:28.58 bitrate=N/A speed=13.2x    frame= 2282 fps=317 q=-0.0 size=N/A time=00:01:35.17 bitrate=N/A speed=13.2x    frame= 2431 fps=314 q=-0.0 size=N/A time=00:01:41.39 bitrate=N/A speed=13.1x    frame= 2565 fps=311 q=-0.0 size=N/A time=00:01:46.98 bitrate=N/A speed=  13x    frame= 2742 fps=313 q=-0.0 size=N/A time=00:01:54.36 bitrate=N/A speed=13.1x    frame= 2915 fps=314 q=-0.0 size=N/A time=00:02:01.57 bitrate=N/A speed=13.1x    frame= 3108 fps=317 q=-0.0 size=N/A time=00:02:09.62 bitrate=N/A speed=13.2x    frame= 3299 fps=320 q=-0.0 size=N/A time=00:02:17.59 bitrate=N/A speed=13.3x    frame= 3495 fps=323 q=-0.0 size=N/A time=00:02:25.77 bitrate=N/A speed=13.5x    frame= 3692 fps=326 q=-0.0 size=N/A time=00:02:33.98 bitrate=N/A speed=13.6x    frame= 3880 fps=327 q=-0.0 size=N/A time=00:02:41.82 bitrate=N/A speed=13.7x    frame= 4077 fps=329 q=-0.0 size=N/A time=00:02:50.04 bitrate=N/A speed=13.7x    frame= 4275 fps=332 q=-0.0 size=N/A time=00:02:58.30 bitrate=N/A speed=13.8x    frame= 4467 fps=333 q=-0.0 size=N/A time=00:03:06.31 bitrate=N/A speed=13.9x    frame= 4668 fps=335 q=-0.0 size=N/A time=00:03:14.69 bitrate=N/A speed=  14x    frame= 4859 fps=337 q=-0.0 size=N/A time=00:03:22.66 bitrate=N/A speed=  14x    frame= 5052 fps=338 q=-0.0 size=N/A time=00:03:30.71 bitrate=N/A speed=14.1x    frame= 5256 fps=340 q=-0.0 size=N/A time=00:03:39.21 bitrate=N/A speed=14.2x    frame= 5443 fps=341 q=-0.0 size=N/A time=00:03:47.01 bitrate=N/A speed=14.2x    frame= 5645 fps=342 q=-0.0 size=N/A time=00:03:55.44 bitrate=N/A speed=14.3x    frame= 5840 fps=343 q=-0.0 size=N/A time=00:04:03.57 bitrate=N/A speed=14.3x    frame= 6028 fps=344 q=-0.0 size=N/A time=00:04:11.41 bitrate=N/A speed=14.3x    frame= 6214 fps=344 q=-0.0 size=N/A time=00:04:19.17 bitrate=N/A speed=14.4x    frame= 6411 fps=345 q=-0.0 size=N/A time=00:04:27.39 bitrate=N/A speed=14.4x    frame= 6602 fps=346 q=-0.0 size=N/A time=00:04:35.35 bitrate=N/A speed=14.4x    frame= 6806 fps=347 q=-0.0 size=N/A time=00:04:43.86 bitrate=N/A speed=14.5x    frame= 6997 fps=348 q=-0.0 size=N/A time=00:04:51.83 bitrate=N/A speed=14.5x    frame= 7183 fps=348 q=-0.0 size=N/A time=00:04:59.59 bitrate=N/A speed=14.5x    frame= 7384 fps=349 q=-0.0 size=N/A time=00:05:07.97 bitrate=N/A speed=14.6x    frame= 7573 fps=350 q=-0.0 size=N/A time=00:05:15.85 bitrate=N/A speed=14.6x    frame= 7752 fps=350 q=-0.0 size=N/A time=00:05:23.32 bitrate=N/A speed=14.6x    frame= 7946 fps=350 q=-0.0 size=N/A time=00:05:31.41 bitrate=N/A speed=14.6x    frame= 8133 fps=351 q=-0.0 size=N/A time=00:05:39.21 bitrate=N/A speed=14.6x    frame= 8322 fps=351 q=-0.0 size=N/A time=00:05:47.09 bitrate=N/A speed=14.6x    frame= 8515 fps=351 q=-0.0 size=N/A time=00:05:55.14 bitrate=N/A speed=14.7x    frame= 8707 fps=352 q=-0.0 size=N/A time=00:06:03.15 bitrate=N/A speed=14.7x    frame= 8893 fps=352 q=-0.0 size=N/A time=00:06:10.91 bitrate=N/A speed=14.7x    frame= 9089 fps=353 q=-0.0 size=N/A time=00:06:19.08 bitrate=N/A speed=14.7x    frame= 9293 fps=353 q=-0.0 size=N/A time=00:06:27.59 bitrate=N/A speed=14.7x    frame= 9485 fps=354 q=-0.0 size=N/A time=00:06:35.60 bitrate=N/A speed=14.8x    frame= 9684 fps=354 q=-0.0 size=N/A time=00:06:43.90 bitrate=N/A speed=14.8x    frame= 9867 fps=354 q=-0.0 size=N/A time=00:06:51.53 bitrate=N/A speed=14.8x    frame=10059 fps=355 q=-0.0 size=N/A time=00:06:59.54 bitrate=N/A speed=14.8x    frame=10261 fps=355 q=-0.0 size=N/A time=00:07:07.96 bitrate=N/A speed=14.8x    frame=10447 fps=355 q=-0.0 size=N/A time=00:07:15.72 bitrate=N/A speed=14.8x    frame=10633 fps=356 q=-0.0 size=N/A time=00:07:23.48 bitrate=N/A speed=14.8x    frame=10831 fps=356 q=-0.0 size=N/A time=00:07:31.74 bitrate=N/A speed=14.9x    frame=11022 fps=356 q=-0.0 size=N/A time=00:07:39.70 bitrate=N/A speed=14.9x    frame=11209 fps=356 q=-0.0 size=N/A time=00:07:47.50 bitrate=N/A speed=14.9x    frame=11399 fps=357 q=-0.0 size=N/A time=00:07:55.43 bitrate=N/A speed=14.9x    frame=11584 fps=357 q=-0.0 size=N/A time=00:08:03.14 bitrate=N/A speed=14.9x    frame=11783 fps=357 q=-0.0 size=N/A time=00:08:11.44 bitrate=N/A speed=14.9x    frame=11971 fps=357 q=-0.0 size=N/A time=00:08:19.29 bitrate=N/A speed=14.9x    frame=12169 fps=358 q=-0.0 size=N/A time=00:08:27.54 bitrate=N/A speed=14.9x    frame=12365 fps=358 q=-0.0 size=N/A time=00:08:35.72 bitrate=N/A speed=14.9x    frame=12557 fps=358 q=-0.0 size=N/A time=00:08:43.73 bitrate=N/A speed=14.9x    frame=12745 fps=358 q=-0.0 size=N/A time=00:08:51.57 bitrate=N/A speed=14.9x    frame=12945 fps=358 q=-0.0 size=N/A time=00:08:59.91 bitrate=N/A speed=  15x    frame=13134 fps=359 q=-0.0 size=N/A time=00:09:07.79 bitrate=N/A speed=  15x    frame=13322 fps=359 q=-0.0 size=N/A time=00:09:15.63 bitrate=N/A speed=  15x    frame=13516 fps=359 q=-0.0 size=N/A time=00:09:23.72 bitrate=N/A speed=  15x    frame=13705 fps=359 q=-0.0 size=N/A time=00:09:31.61 bitrate=N/A speed=  15x    frame=13901 fps=359 q=-0.0 size=N/A time=00:09:39.78 bitrate=N/A speed=  15x    frame=14089 fps=359 q=-0.0 size=N/A time=00:09:47.62 bitrate=N/A speed=  15x    frame=14268 fps=359 q=-0.0 size=N/A time=00:09:55.09 bitrate=N/A speed=  15x    frame=14464 fps=360 q=-0.0 size=N/A time=00:10:03.26 bitrate=N/A speed=  15x    frame=14653 fps=360 q=-0.0 size=N/A time=00:10:11.15 bitrate=N/A speed=  15x    frame=14848 fps=360 q=-0.0 size=N/A time=00:10:19.28 bitrate=N/A speed=  15x    frame=15037 fps=360 q=-0.0 size=N/A time=00:10:27.16 bitrate=N/A speed=  15x    frame=15203 fps=359 q=-0.0 size=N/A time=00:10:34.09 bitrate=N/A speed=  15x    frame=15389 fps=360 q=-0.0 size=N/A time=00:10:41.84 bitrate=N/A speed=  15x    frame=15577 fps=360 q=-0.0 size=N/A time=00:10:49.69 bitrate=N/A speed=  15x    frame=15765 fps=360 q=-0.0 size=N/A time=00:10:57.53 bitrate=N/A speed=  15x    frame=15957 fps=360 q=-0.0 size=N/A time=00:11:05.53 bitrate=N/A speed=  15x    frame=16149 fps=360 q=-0.0 size=N/A time=00:11:13.54 bitrate=N/A speed=  15x    frame=16337 fps=360 q=-0.0 size=N/A time=00:11:21.38 bitrate=N/A speed=  15x    frame=16520 fps=360 q=-0.0 size=N/A time=00:11:29.02 bitrate=N/A speed=  15x    frame=16726 fps=360 q=-0.0 size=N/A time=00:11:37.61 bitrate=N/A speed=  15x    frame=16921 fps=361 q=-0.0 size=N/A time=00:11:45.74 bitrate=N/A speed=  15x    frame=17111 fps=361 q=-0.0 size=N/A time=00:11:53.67 bitrate=N/A speed=  15x    frame=17315 fps=361 q=-0.0 size=N/A time=00:12:02.17 bitrate=N/A speed=15.1x    frame=17502 fps=361 q=-0.0 size=N/A time=00:12:09.97 bitrate=N/A speed=15.1x    frame=17691 fps=361 q=-0.0 size=N/A time=00:12:17.86 bitrate=N/A speed=15.1x    frame=17881 fps=361 q=-0.0 size=N/A time=00:12:25.78 bitrate=N/A speed=15.1x    frame=18080 fps=361 q=-0.0 size=N/A time=00:12:34.08 bitrate=N/A speed=15.1x    frame=18261 fps=361 q=-0.0 size=N/A time=00:12:41.63 bitrate=N/A speed=15.1x    frame=18452 fps=361 q=-0.0 size=N/A time=00:12:49.60 bitrate=N/A speed=15.1x    frame=18642 fps=361 q=-0.0 size=N/A time=00:12:57.52 bitrate=N/A speed=15.1x    frame=18840 fps=362 q=-0.0 size=N/A time=00:13:05.78 bitrate=N/A speed=15.1x    frame=19035 fps=362 q=-0.0 size=N/A time=00:13:13.91 bitrate=N/A speed=15.1x    frame=19228 fps=362 q=-0.0 size=N/A time=00:13:21.96 bitrate=N/A speed=15.1x    frame=19423 fps=362 q=-0.0 size=N/A time=00:13:30.10 bitrate=N/A speed=15.1x    frame=19613 fps=362 q=-0.0 size=N/A time=00:13:38.02 bitrate=N/A speed=15.1x    frame=19810 fps=362 q=-0.0 size=N/A time=00:13:46.24 bitrate=N/A speed=15.1x    frame=20010 fps=363 q=-0.0 size=N/A time=00:13:54.58 bitrate=N/A speed=15.1x    frame=20205 fps=363 q=-0.0 size=N/A time=00:14:02.71 bitrate=N/A speed=15.1x    frame=20393 fps=363 q=-0.0 size=N/A time=00:14:10.55 bitrate=N/A speed=15.1x    frame=20582 fps=363 q=-0.0 size=N/A time=00:14:18.44 bitrate=N/A speed=15.1x    frame=20760 fps=363 q=-0.0 size=N/A time=00:14:25.86 bitrate=N/A speed=15.1x    frame=20958 fps=363 q=-0.0 size=N/A time=00:14:34.12 bitrate=N/A speed=15.1x    frame=21154 fps=363 q=-0.0 size=N/A time=00:14:42.29 bitrate=N/A speed=15.1x    frame=21347 fps=363 q=-0.0 size=N/A time=00:14:50.34 bitrate=N/A speed=15.1x    frame=21541 fps=363 q=-0.0 size=N/A time=00:14:58.43 bitrate=N/A speed=15.1x    frame=21732 fps=363 q=-0.0 size=N/A time=00:15:06.40 bitrate=N/A speed=15.2x    frame=21932 fps=363 q=-0.0 size=N/A time=00:15:14.74 bitrate=N/A speed=15.2x    frame=22124 fps=364 q=-0.0 size=N/A time=00:15:22.75 bitrate=N/A speed=15.2x    frame=22309 fps=364 q=-0.0 size=N/A time=00:15:30.47 bitrate=N/A speed=15.2x    frame=22505 fps=364 q=-0.0 size=N/A time=00:15:38.64 bitrate=N/A speed=15.2x    frame=22706 fps=364 q=-0.0 size=N/A time=00:15:47.02 bitrate=N/A speed=15.2x    frame=22894 fps=364 q=-0.0 size=N/A time=00:15:54.87 bitrate=N/A speed=15.2x    frame=23085 fps=364 q=-0.0 size=N/A time=00:16:02.83 bitrate=N/A speed=15.2x    frame=23274 fps=364 q=-0.0 size=N/A time=00:16:10.71 bitrate=N/A speed=15.2x    frame=23476 fps=364 q=-0.0 size=N/A time=00:16:19.14 bitrate=N/A speed=15.2x    frame=23672 fps=364 q=-0.0 size=N/A time=00:16:27.31 bitrate=N/A speed=15.2x    frame=23866 fps=364 q=-0.0 size=N/A time=00:16:35.41 bitrate=N/A speed=15.2x    frame=24069 fps=365 q=-0.0 size=N/A time=00:16:43.87 bitrate=N/A speed=15.2x    frame=24253 fps=365 q=-0.0 size=N/A time=00:16:51.55 bitrate=N/A speed=15.2x    frame=24454 fps=365 q=-0.0 size=N/A time=00:16:59.93 bitrate=N/A speed=15.2x    frame=24652 fps=365 q=-0.0 size=N/A time=00:17:08.19 bitrate=N/A speed=15.2x    frame=24845 fps=365 q=-0.0 size=N/A time=00:17:16.24 bitrate=N/A speed=15.2x    frame=25039 fps=365 q=-0.0 size=N/A time=00:17:24.33 bitrate=N/A speed=15.2x    frame=25235 fps=365 q=-0.0 size=N/A time=00:17:32.50 bitrate=N/A speed=15.2x    frame=25427 fps=365 q=-0.0 size=N/A time=00:17:40.51 bitrate=N/A speed=15.2x    frame=25623 fps=365 q=-0.0 size=N/A time=00:17:48.69 bitrate=N/A speed=15.2x    frame=25814 fps=365 q=-0.0 size=N/A time=00:17:56.65 bitrate=N/A speed=15.2x    frame=26015 fps=365 q=-0.0 size=N/A time=00:18:05.04 bitrate=N/A speed=15.2x    frame=26209 fps=366 q=-0.0 size=N/A time=00:18:13.13 bitrate=N/A speed=15.2x    frame=26389 fps=365 q=-0.0 size=N/A time=00:18:20.64 bitrate=N/A speed=15.2x    frame=26563 fps=365 q=-0.0 size=N/A time=00:18:27.89 bitrate=N/A speed=15.2x    frame=26762 fps=365 q=-0.0 size=N/A time=00:18:36.19 bitrate=N/A speed=15.2x    frame=26948 fps=365 q=-0.0 size=N/A time=00:18:43.95 bitrate=N/A speed=15.2x    frame=27127 fps=365 q=-0.0 size=N/A time=00:18:51.42 bitrate=N/A speed=15.2x    frame=27314 fps=365 q=-0.0 size=N/A time=00:18:59.22 bitrate=N/A speed=15.2x    frame=27491 fps=365 q=-0.0 size=N/A time=00:19:06.60 bitrate=N/A speed=15.2x    frame=27693 fps=365 q=-0.0 size=N/A time=00:19:15.02 bitrate=N/A speed=15.2x    frame=27885 fps=365 q=-0.0 size=N/A time=00:19:23.03 bitrate=N/A speed=15.2x    frame=28079 fps=365 q=-0.0 size=N/A time=00:19:31.12 bitrate=N/A speed=15.2x    frame=28265 fps=365 q=-0.0 size=N/A time=00:19:38.88 bitrate=N/A speed=15.2x    frame=28463 fps=365 q=-0.0 size=N/A time=00:19:47.14 bitrate=N/A speed=15.2x    frame=28654 fps=365 q=-0.0 size=N/A time=00:19:55.11 bitrate=N/A speed=15.2x    frame=28833 fps=365 q=-0.0 size=N/A time=00:20:02.57 bitrate=N/A speed=15.2x    frame=29008 fps=365 q=-0.0 size=N/A time=00:20:09.87 bitrate=N/A speed=15.2x    frame=29184 fps=365 q=-0.0 size=N/A time=00:20:17.21 bitrate=N/A speed=15.2x    frame=29371 fps=365 q=-0.0 size=N/A time=00:20:25.01 bitrate=N/A speed=15.2x    frame=29548 fps=365 q=-0.0 size=N/A time=00:20:32.39 bitrate=N/A speed=15.2x    frame=29728 fps=365 q=-0.0 size=N/A time=00:20:39.90 bitrate=N/A speed=15.2x    frame=29914 fps=365 q=-0.0 size=N/A time=00:20:47.66 bitrate=N/A speed=15.2x    frame=30078 fps=364 q=-0.0 size=N/A time=00:20:54.50 bitrate=N/A speed=15.2x    frame=30265 fps=364 q=-0.0 size=N/A time=00:21:02.30 bitrate=N/A speed=15.2x    frame=30452 fps=364 q=-0.0 size=N/A time=00:21:10.10 bitrate=N/A speed=15.2x    frame=30654 fps=365 q=-0.0 size=N/A time=00:21:18.52 bitrate=N/A speed=15.2x    frame=30846 fps=365 q=-0.0 size=N/A time=00:21:26.53 bitrate=N/A speed=15.2x    frame=31033 fps=365 q=-0.0 size=N/A time=00:21:34.33 bitrate=N/A speed=15.2x    frame=31227 fps=365 q=-0.0 size=N/A time=00:21:42.42 bitrate=N/A speed=15.2x    frame=31418 fps=365 q=-0.0 size=N/A time=00:21:50.39 bitrate=N/A speed=15.2x    frame=31612 fps=365 q=-0.0 size=N/A time=00:21:58.48 bitrate=N/A speed=15.2x    frame=31795 fps=365 q=-0.0 size=N/A time=00:22:06.11 bitrate=N/A speed=15.2x    frame=31981 fps=365 q=-0.0 size=N/A time=00:22:13.87 bitrate=N/A speed=15.2x    frame=32169 fps=365 q=-0.0 size=N/A time=00:22:21.71 bitrate=N/A speed=15.2x    frame=32359 fps=365 q=-0.0 size=N/A time=00:22:29.63 bitrate=N/A speed=15.2x    frame=32558 fps=365 q=-0.0 size=N/A time=00:22:37.93 bitrate=N/A speed=15.2x    frame=32714 fps=364 q=-0.0 size=N/A time=00:22:44.44 bitrate=N/A speed=15.2x    frame=32875 fps=364 q=-0.0 size=N/A time=00:22:51.16 bitrate=N/A speed=15.2x    frame=33058 fps=364 q=-0.0 size=N/A time=00:22:58.79 bitrate=N/A speed=15.2x    frame=33251 fps=364 q=-0.0 size=N/A time=00:23:06.84 bitrate=N/A speed=15.2x    frame=33427 fps=364 q=-0.0 size=N/A time=00:23:14.18 bitrate=N/A speed=15.2x    frame=33577 fps=364 q=-0.0 size=N/A time=00:23:20.44 bitrate=N/A speed=15.2x    frame=33735 fps=363 q=-0.0 size=N/A time=00:23:27.03 bitrate=N/A speed=15.2x    frame=33862 fps=363 q=-0.0 size=N/A time=00:23:32.32 bitrate=N/A speed=15.1x    frame=34019 fps=362 q=-0.0 size=N/A time=00:23:38.87 bitrate=N/A speed=15.1x    frame=34185 fps=362 q=-0.0 size=N/A time=00:23:45.79 bitrate=N/A speed=15.1x    frame=34336 fps=362 q=-0.0 size=N/A time=00:23:52.09 bitrate=N/A speed=15.1x    frame=34472 fps=361 q=-0.0 size=N/A time=00:23:57.76 bitrate=N/A speed=15.1x    frame=34662 fps=361 q=-0.0 size=N/A time=00:24:05.69 bitrate=N/A speed=15.1x    [Parsed_psnr_16 @ 0000019114eec800] PSNR y:48.524520 u:50.158220 v:50.200021 average:49.009209 min:37.661212 max:inf
[out#0/null @ 0000019107a8dec0] video:14903KiB audio:271276KiB subtitle:0KiB other streams:0KiB global headers:0KiB muxing overhead: unknown
frame=34683 fps=361 q=-0.0 Lsize=N/A time=00:24:06.57 bitrate=N/A speed=15.1x    
